HIERARCHY
ROOT Hips
{
	OFFSET 0.000000 0.000000 0.000000
	CHANNELS 6 Xposition Yposition Zposition Xrotation Yrotation Zrotation
	JOINT LeftUpLeg_virtual
	{
		OFFSET 0.000000 0.000000 0.000000
		CHANNELS 3 Xrotation Yrotation Zrotation
		JOINT LeftUpLeg
		{
			OFFSET 10.205400 -3.823500 0.155100
			CHANNELS 3 Xrotation Yrotation Zrotation
			JOINT LeftLeg
			{
				OFFSET 0.708757 -12.982077 0.567790
				CHANNELS 3 Xrotation Yrotation Zrotation
				JOINT LeftFoot
				{
					OFFSET -0.708756 -10.717838 -2.184338
					CHANNELS 3 Xrotation Yrotation Zrotation
					JOINT LeftToeBase
					{
						OFFSET 0.108149 -7.191104 7.560241
						CHANNELS 3 Xrotation Yrotation Zrotation
						JOINT LeftToe_End
						{
							OFFSET 0.070230 0.081724 4.490308
							CHANNELS 3 Xrotation Yrotation Zrotation
							End Site
							{
								OFFSET 0 0 0
							}
						}
					}
				}
			}
		}
	}
	JOINT RightUpLeg_virtual
	{
		OFFSET 0.000000 0.000000 0.000000
		CHANNELS 3 Xrotation Yrotation Zrotation
		JOINT RightUpLeg
		{
			OFFSET -10.205400 -3.823500 0.005500
			CHANNELS 3 Xrotation Yrotation Zrotation
			JOINT RightLeg
			{
				OFFSET -0.708756 -12.982134 0.610632
				CHANNELS 3 Xrotation Yrotation Zrotation
				JOINT RightFoot
				{
					OFFSET 0.708754 -10.717769 -1.945823
					CHANNELS 3 Xrotation Yrotation Zrotation
					JOINT RightToeBase
					{
						OFFSET -0.108140 -7.191069 7.372968
						CHANNELS 3 Xrotation Yrotation Zrotation
						JOINT RightToe_End
						{
							OFFSET -0.070227 0.081735 4.479403
							CHANNELS 3 Xrotation Yrotation Zrotation
							End Site
							{
								OFFSET 0 0 0
							}
						}
					}
				}
			}
		}
	}
	JOINT Spine_virtual
	{
		OFFSET 0.000000 0.000000 0.000000
		CHANNELS 3 Xrotation Yrotation Zrotation
		JOINT Spine
		{
			OFFSET 0.000000 6.876099 0.125700
			CHANNELS 3 Xrotation Yrotation Zrotation
			JOINT Spine1
			{
				OFFSET 0.000000 5.730043 0.104720
				CHANNELS 3 Xrotation Yrotation Zrotation
				JOINT Spine1_split
				{
					OFFSET 0.000000 5.730043 0.104720
					CHANNELS 3 Xrotation Yrotation Zrotation
					JOINT Spine2
					{
						OFFSET 0.000000 5.730043 0.104720
						CHANNELS 3 Xrotation Yrotation Zrotation
						JOINT Neck_virtual
						{
							OFFSET 0.000000 0.000000 0.000000
							CHANNELS 3 Xrotation Yrotation Zrotation
							JOINT Neck
							{
								OFFSET 0.000000 10.314075 0.188496
								CHANNELS 3 Xrotation Yrotation Zrotation
								JOINT Head
								{
									OFFSET 0.000000 7.643700 -2.377400
									CHANNELS 3 Xrotation Yrotation Zrotation
									JOINT HeadTop_End
									{
										OFFSET 0.000000 43.788605 -13.619600
										CHANNELS 3 Xrotation Yrotation Zrotation
										End Site
										{
											OFFSET 0 0 0
										}
									}
								}
							}
						}
						JOINT LeftShoulder_virtual
						{
							OFFSET 0.000000 0.000000 0.000000
							CHANNELS 3 Xrotation Yrotation Zrotation
							JOINT LeftShoulder
							{
								OFFSET 2.196100 4.412489 0.087492
								CHANNELS 3 Xrotation Yrotation Zrotation
								JOINT LeftShoulder_split
								{
									OFFSET 2.196100 4.412489 0.087492
									CHANNELS 3 Xrotation Yrotation Zrotation
									JOINT LeftArm
									{
										OFFSET 8.771219 -2.981674 -0.026999
										CHANNELS 3 Xrotation Yrotation Zrotation
										JOINT LeftForeArm
										{
											OFFSET 8.512804 0.000000 -0.000000
											CHANNELS 3 Xrotation Yrotation Zrotation
											JOINT LeftHand
											{
												OFFSET 18.484802 0.000000 -0.000000
												CHANNELS 3 Xrotation Yrotation Zrotation
												End Site
												{
													OFFSET 0 0 0
												}
											}
										}
									}
								}
							}
						}
						JOINT RightShoulder_virtual
						{
							OFFSET 0.000000 0.000000 0.000000
							CHANNELS 3 Xrotation Yrotation Zrotation
							JOINT RightShoulder
							{
								OFFSET -2.196100 4.412496 0.070690
								CHANNELS 3 Xrotation Yrotation Zrotation
								JOINT RightShoulder_split
								{
									OFFSET -2.196100 4.412496 0.070690
									CHANNELS 3 Xrotation Yrotation Zrotation
									JOINT RightArm
									{
										OFFSET -8.771282 -2.981682 -0.094208
										CHANNELS 3 Xrotation Yrotation Zrotation
										JOINT RightForeArm
										{
											OFFSET -8.494598 0.000000 0.000000
											CHANNELS 3 Xrotation Yrotation Zrotation
											JOINT RightHand
											{
												OFFSET -18.483803 0.000000 0.000001
												CHANNELS 3 Xrotation Yrotation Zrotation
												End Site
												{
													OFFSET 0 0 0
												}
											}
										}
									}
								}
							}
						}
					}
				}
			}
		}
	}
}
MOTION
Frames: 9
Frame Time: 0.03333333
-0.934944 52.109829 -0.715014 0.000000 0.000000 0.000000 8.972817 3.317818 5.022191 -47.529524 15.099521 2.804049 42.871458 7.451375 -3.030540 35.691297 9.164373 5.425296 -6.624569 0.874197 2.785850 0.000000 0.000000 0.000000 10.641855 5.702588 4.375062 -2.649225 1.639672 -8.873035 28.108677 -5.528985 8.073647 20.662695 -14.627864 19.061444 3.163578 4.640114 -0.730120 0.000000 0.000000 0.000000 9.895585 1.620819 5.116694 -9.554368 1.774421 0.064691 -4.969131 1.417954 0.583317 2.222673 -5.072952 2.766505 0.000000 0.000000 0.000000 -1.693179 0.195271 0.520824 -14.168327 -3.510045 -0.934256 -4.559394 0.780148 1.371670 0.000000 0.000000 0.000000 -6.750159 0.698079 0.237326 14.348361 1.816410 29.023400 11.905810 10.302450 -0.267515 -54.917562 -39.791719 3.743254 -41.930337 -24.128429 2.069815 0.000000 0.000000 0.000000 -6.927073 0.565646 1.337285 2.665910 -9.964064 -33.364067 -0.898401 4.418586 0.793584 -72.546349 33.431925 12.781879 -26.160403 27.457188 1.367146 0.000000 0.000000 0.000000 
-0.490747 52.444191 -1.716808 0.000000 0.000000 0.000000 8.474976 1.093183 5.127063 -46.910272 12.402444 1.541991 44.713775 6.675425 -2.870301 33.909823 8.454251 4.305655 -5.325315 0.741800 2.396892 0.000000 0.000000 0.000000 10.554536 3.478501 4.472598 -3.670098 -0.365665 -9.014766 32.617415 -4.165288 8.308810 23.270827 -13.278966 18.892633 6.051673 4.519411 -0.868442 0.000000 0.000000 0.000000 9.853288 0.093087 5.212537 -9.792987 1.620156 0.229120 -5.041557 1.607757 1.064076 1.719547 -3.298811 1.702105 0.000000 0.000000 0.000000 -0.926543 0.526106 0.660125 -14.379565 -3.774506 0.149150 -5.588118 0.260150 1.339758 0.000000 0.000000 0.000000 -6.432839 0.890682 0.679242 14.434029 1.807498 29.548577 11.206361 8.457621 -0.264794 -56.748756 -41.450803 1.179456 -40.361548 -24.364277 3.897991 0.000000 0.000000 0.000000 -6.282627 0.731074 1.486731 2.767091 -10.039521 -33.542345 -1.233716 4.363518 0.874706 -72.406118 32.886910 12.056067 -26.159963 27.992603 1.290607 0.000000 0.000000 0.000000 
0.139020 52.923332 -3.131443 0.000000 0.000000 0.000000 7.297320 -2.996460 4.913239 -47.630239 9.210726 -0.028623 49.505846 3.640414 -2.245395 29.774072 5.537780 1.433732 -3.846098 0.476757 1.450801 0.000000 0.000000 0.000000 10.092639 -0.894796 4.475151 -3.726237 -2.232680 -9.362945 35.170054 -3.263007 8.005597 26.448154 -10.977010 18.598742 4.829831 4.272437 -0.558458 0.000000 0.000000 0.000000 9.428114 -3.667597 5.169097 -9.103636 1.969888 0.567038 -5.022938 2.660520 1.621644 1.638046 -1.331525 0.124106 0.000000 0.000000 0.000000 -0.309239 1.775471 0.830620 -14.789240 -3.516601 0.836036 -7.995955 0.545318 1.310772 0.000000 0.000000 0.000000 -6.281044 2.014515 1.066904 14.933287 2.485330 29.745320 9.968232 6.306528 -0.491442 -62.214875 -42.267027 -3.826950 -37.598091 -27.388560 7.334663 0.000000 0.000000 0.000000 -5.713726 1.828180 1.773869 3.588933 -9.516635 -33.644586 -1.522882 4.076481 0.747427 -72.848510 31.168824 11.585540 -26.460119 28.976528 1.147221 0.000000 0.000000 0.000000 
0.714485 53.455070 -4.516842 0.000000 0.000000 0.000000 5.970762 -8.085458 4.347896 -49.432145 6.447964 -1.500170 55.271134 0.016844 -1.415559 23.586134 2.162191 -1.921204 -3.040233 0.052675 0.435233 0.000000 0.000000 0.000000 9.408532 -7.118666 4.321040 -2.431863 -3.978502 -9.864309 34.693567 -3.217651 7.073014 27.915530 -9.379145 16.258376 1.947325 3.951022 0.306468 0.000000 0.000000 0.000000 8.605872 -9.938742 4.790003 -7.431603 2.808970 1.014817 -4.843371 4.449726 2.217175 1.875554 0.496251 -0.975944 0.000000 0.000000 0.000000 0.018892 3.794703 1.045075 -15.313317 -2.933911 1.117569 -11.214724 1.635581 1.420554 0.000000 0.000000 0.000000 -6.107042 3.915385 1.336120 15.725063 4.027219 29.680539 7.893273 4.479989 -0.582716 -68.531051 -41.200152 -8.454117 -33.937701 -30.861472 12.506059 0.000000 0.000000 0.000000 -5.184099 3.814408 2.168695 4.898177 -8.534905 -33.808053 -1.881690 3.672064 0.341635 -73.789641 29.299736 11.469514 -26.844988 30.002569 0.819014 0.000000 0.000000 0.000000 
1.101681 53.970871 -5.765585 0.000000 0.000000 0.000000 4.968134 -14.238793 3.537691 -51.015069 4.728338 -2.562293 59.390803 -2.300631 -0.833884 15.834960 0.690956 -3.433890 -3.058497 -0.442422 -0.369892 0.000000 0.000000 0.000000 8.929459 -15.106995 4.070934 -0.369163 -5.518438 -10.868988 31.752665 -3.643159 5.811236 27.660898 -8.938850 11.270208 1.388369 3.559451 1.743811 0.000000 0.000000 0.000000 7.615014 -18.135684 4.144924 -5.114511 4.043588 1.466013 -4.462373 6.729536 2.813842 2.334385 1.253832 -0.897345 0.000000 0.000000 0.000000 0.103456 6.304888 1.323175 -15.621283 -2.259853 1.231473 -14.210896 3.418510 1.768409 0.000000 0.000000 0.000000 -5.679757 6.321978 1.468640 16.684762 6.387752 29.361300 5.575001 3.085237 -0.774871 -72.760373 -39.202544 -10.303434 -30.763736 -33.166463 18.265891 0.000000 0.000000 0.000000 -4.689455 6.472513 2.651135 6.404790 -7.253640 -34.167417 -2.259762 3.212992 -0.485236 -74.971093 28.352300 11.688475 -27.232335 31.000384 0.286447 0.000000 0.000000 0.000000 
1.240224 54.531319 -7.050732 0.000000 0.000000 0.000000 4.625548 -22.434689 2.801012 -51.143070 3.935406 -2.785987 60.267226 -2.414587 -0.946465 7.994550 1.966740 -1.708438 -3.369844 -0.870997 -1.052086 0.000000 0.000000 0.000000 8.113029 -24.594022 3.689411 1.097321 -6.964413 -12.498859 28.647282 -3.661813 4.742114 28.523454 -9.018724 5.667906 3.531402 3.137194 3.559162 0.000000 0.000000 0.000000 6.861330 -27.276683 3.372439 -2.657770 5.433336 1.808103 -3.865977 9.207121 3.329316 2.903989 0.170133 -0.682588 0.000000 0.000000 0.000000 0.133147 8.964101 1.606259 -15.518354 -1.749474 1.389605 -16.110365 5.554510 2.403169 0.000000 0.000000 0.000000 -4.944144 8.943849 1.411967 17.769087 8.982673 28.684264 3.588756 2.229572 -0.690342 -73.160827 -36.466062 -7.800250 -29.066013 -33.230400 23.312341 0.000000 0.000000 0.000000 -4.038211 9.451719 3.135580 7.889456 -5.873543 -34.524123 -2.700275 2.618730 -1.778639 -76.350600 28.605082 12.107252 -27.486496 31.966122 -0.541043 0.000000 0.000000 0.000000 
1.173818 55.000122 -8.245770 0.000000 0.000000 0.000000 4.947181 -33.331603 2.542035 -49.417112 3.442605 -2.065295 57.811322 -0.789978 -1.545039 2.114791 5.029598 2.461693 -3.573693 -1.177282 -1.806962 0.000000 0.000000 0.000000 7.309808 -34.949730 3.182556 1.110593 -7.958139 -14.391577 26.248835 -2.605377 3.670858 31.662442 -8.709837 2.277438 4.486584 2.564731 5.194934 0.000000 0.000000 0.000000 6.641011 -37.214426 2.776622 -0.577005 6.779828 2.002741 -3.075076 11.632044 3.664817 3.117985 -1.369903 -0.167612 0.000000 0.000000 0.000000 0.275881 11.517922 1.826078 -14.757939 -1.599853 1.650111 -16.187892 7.584189 3.155729 0.000000 0.000000 0.000000 -3.892936 11.510187 1.213560 18.891905 11.358403 27.896776 2.148131 1.638583 0.116380 -70.872748 -33.006660 -1.930612 -29.267924 -31.964438 26.728269 0.000000 0.000000 0.000000 -3.218134 12.394838 3.470806 9.096299 -4.592831 -34.710642 -2.739431 1.932546 -3.042982 -77.904646 29.669929 13.005297 -27.386892 33.155074 -1.810578 0.000000 0.000000 0.000000 
1.009761 55.062645 -9.394997 0.000000 0.000000 0.000000 5.627047 -45.345004 2.827281 -46.247638 2.705853 -0.410776 53.336981 1.116591 -1.840008 0.340249 8.219226 6.195790 -4.073401 -1.383456 -2.320285 0.000000 0.000000 0.000000 7.124306 -45.365823 3.011933 -0.224308 -7.679389 -15.931182 24.013361 0.013349 2.189726 35.548338 -7.577436 1.830365 2.202963 1.557008 6.069092 0.000000 0.000000 0.000000 6.978390 -47.242568 2.709669 0.796280 7.980173 2.038317 -2.133184 13.832361 3.749166 2.921549 -2.490005 0.212092 0.000000 0.000000 0.000000 0.617368 13.772314 1.907643 -13.323777 -1.904276 1.978322 -13.909871 9.424188 3.765683 0.000000 0.000000 0.000000 -2.665922 13.809755 0.932793 19.914931 13.120138 27.005714 0.843425 1.418723 1.729369 -68.681357 -29.995776 3.759436 -30.061609 -31.635865 28.564409 0.000000 0.000000 0.000000 -2.318905 14.996611 3.550968 9.870789 -3.531832 -34.547855 -2.114636 1.113567 -3.843695 -80.000346 30.677207 14.687437 -26.824871 34.669723 -3.663231 0.000000 0.000000 0.000000 
0.830618 54.512764 -10.407169 0.000000 0.000000 0.000000 6.517779 -56.091317 3.627740 -42.281466 1.768526 1.913501 48.123156 1.977665 -1.535915 3.611158 10.204334 6.750757 -4.650371 -1.549888 -2.269290 0.000000 0.000000 0.000000 7.740285 -55.406095 3.664477 -2.718112 -6.090167 -17.103805 22.219529 3.170196 0.514756 38.675335 -6.407539 2.749583 -0.219517 0.636997 6.066535 0.000000 0.000000 0.000000 7.864229 -56.566377 3.433654 1.389433 8.958654 1.942493 -1.108835 15.743222 3.554253 2.020737 -2.614844 0.100781 0.000000 0.000000 0.000000 1.172525 15.597471 1.774731 -11.450167 -2.703051 2.352731 -9.411862 10.897526 3.994388 0.000000 0.000000 0.000000 -1.417827 15.775574 0.562228 20.631442 14.201679 25.591628 -0.282608 1.081849 3.218483 -68.246103 -27.882885 6.674135 -29.777733 -34.319320 29.411184 0.000000 0.000000 0.000000 -1.275359 17.087800 3.317211 10.211405 -2.648087 -33.917104 -0.685712 0.335747 -3.895858 -83.387812 30.744543 17.669757 -25.789336 36.771102 -6.231014 0.000000 0.000000 0.000000 
